<svg width="320" height="259" viewBox="0 0 320 259" fill="none" xmlns="http://www.w3.org/2000/svg">
<path d="M148.787 0L228.678 79.4745C267.833 118.425 267.833 181.575 228.678 220.525L219.682 229.474C180.528 268.425 117.046 268.425 77.8914 229.475L68.8954 220.525C29.741 181.575 29.7409 118.425 68.8954 79.4745L148.787 0Z" fill="#FEF2F0"/>
<path d="M255 151C255 179.113 243.832 206.074 223.953 225.953C204.074 245.832 177.113 257 149 257C120.887 257 93.9255 245.832 74.0467 225.953C54.1678 206.074 43 179.113 43 151L149 151H255Z" fill="#F9BAB1"/>
<path d="M149 187C149 131.772 193.772 87 249 87H320V93C320 148.228 275.228 193 220 193H149V187Z" fill="#326E62"/>
<path d="M0 108H64C110.944 108 149 146.056 149 193V193H85C38.0558 193 0 154.944 0 108V108Z" fill="#81B8A8"/>
</svg>
