<svg width="58" height="59" viewBox="0 0 58 59" fill="none" xmlns="http://www.w3.org/2000/svg">
    <g filter="url(#filter0_d_1_359)">
    <path d="M54 25.8151C54 39.6222 42.8071 50.8151 29 50.8151C15.1929 50.8151 4 39.6222 4 25.8151C4 12.0079 15.1929 0.815063 29 0.815063C42.8071 0.815063 54 12.0079 54 25.8151Z" fill="#326E62"/>
    </g>
    <path fill-rule="evenodd" clip-rule="evenodd" d="M30.5 13.8151C30.5 12.9866 29.8284 12.3151 29 12.3151C28.1716 12.3151 27.5 12.9866 27.5 13.8151V24.3151H17C16.1716 24.3151 15.5 24.9866 15.5 25.8151C15.5 26.6435 16.1716 27.3151 17 27.3151H27.5V37.8151C27.5 38.6435 28.1716 39.3151 29 39.3151C29.8284 39.3151 30.5 38.6435 30.5 37.8151V27.3151H41C41.8284 27.3151 42.5 26.6435 42.5 25.8151C42.5 24.9866 41.8284 24.3151 41 24.3151H30.5V13.8151Z" fill="white"/>
    <defs>
    <filter id="filter0_d_1_359" x="0" y="0.815063" width="58" height="58" filterUnits="userSpaceOnUse" color-interpolation-filters="sRGB">
    <feFlood flood-opacity="0" result="BackgroundImageFix"/>
    <feColorMatrix in="SourceAlpha" type="matrix" values="0 0 0 0 0 0 0 0 0 0 0 0 0 0 0 0 0 0 127 0" result="hardAlpha"/>
    <feOffset dy="4"/>
    <feGaussianBlur stdDeviation="2"/>
    <feComposite in2="hardAlpha" operator="out"/>
    <feColorMatrix type="matrix" values="0 0 0 0 0 0 0 0 0 0 0 0 0 0 0 0 0 0 0.25 0"/>
    <feBlend mode="normal" in2="BackgroundImageFix" result="effect1_dropShadow_1_359"/>
    <feBlend mode="normal" in="SourceGraphic" in2="effect1_dropShadow_1_359" result="shape"/>
    </filter>
    </defs>
    </svg>