<svg width="205" height="200" viewBox="0 0 205 200" fill="none" xmlns="http://www.w3.org/2000/svg">
<path opacity="0.4" d="M4.66309 100C4.66309 44.7715 49.4346 0 104.663 0H204.663V100C204.663 155.228 159.892 200 104.663 200V200C49.4346 200 4.66309 155.228 4.66309 100V100Z" fill="#F9BAB1"/>
<path d="M5.28351 120.337C2.36551 109.447 8.82819 98.2531 19.7183 95.3351L39.4366 90.0516V90.0516C42.3546 100.942 35.8919 112.135 25.0018 115.053L5.28351 120.337V120.337Z" fill="#81B8A8"/>
<path d="M34.4986 59.8749C44.7892 62.6323 50.8961 73.2097 48.1387 83.5003V83.5003L29.506 78.5076C19.2155 75.7503 13.1086 65.1729 15.8659 54.8823V54.8823L34.4986 59.8749Z" fill="#326E62"/>
<path d="M56.6916 126.491C55.6855 123.272 58.0908 120 61.464 120H147.862C151.235 120 153.641 123.272 152.635 126.491L134.049 185.965C131.44 194.315 123.707 200 114.959 200H94.3669C85.6192 200 77.8865 194.315 75.2773 185.966L56.6916 126.491Z" fill="#7492A7"/>
<path d="M96.6631 87C96.6631 78.7157 103.379 72 111.663 72V72V120H96.6631V87Z" fill="#F9BAB1"/>
<path d="M134.283 78.7603V78.7603C138.132 86.0961 135.306 95.1632 127.97 99.0123L111.632 107.584V107.584C107.783 100.249 110.61 91.1814 117.946 87.3324L134.283 78.7603Z" fill="#F9BAB1"/>
<path d="M152 81.5C152 81.5 138.5 65 115.5 63.5C92.5 62 76 82.5 53.5 86C31 89.4999 23.5 79.5 23.5 79.5" stroke="#FEF2F0" stroke-linecap="round" stroke-linejoin="round"/>
</svg>
